# Blender 4.0.2
# www.blender.org
o Plane
v -2.743200 0.000000 5.181600
v 2.743200 0.000000 5.181600
v -2.743200 0.000000 -1.219200
v 2.743200 0.000000 -1.219200
v -2.743200 0.000000 -2.438400
v 2.743200 0.000000 -2.438400
v -2.743200 3.352800 5.181600
v 2.743200 3.352800 5.181600
v 2.743200 4.572000 -2.438400
v -2.743200 4.572000 -2.438400
v 2.743200 3.352800 -1.219200
v -2.743200 3.352800 -1.219200
v 2.743200 4.572000 -6.400800
v -2.743200 4.572000 -6.400800
v -2.743200 0.000000 -6.400800
v 2.743200 0.000000 -6.400800
v -5.486400 0.000000 -2.438400
v -5.486400 4.572000 -2.438400
v -5.486400 4.572000 -6.400800
v -5.486400 0.000000 -6.400800
v -9.753600 -3.352800 -2.438400
v -9.753599 1.219200 -2.362200
v -9.753598 1.219200 -6.324600
v -9.753600 -3.352800 -6.400800
v -13.716001 -3.352800 -2.438400
v -12.801600 1.219200 -2.362200
v -12.801600 1.219200 -6.324600
v -13.716001 -3.352800 -6.400800
v -9.753600 -3.352800 1.219200
v -9.753599 1.219200 1.295400
v -13.716001 -3.352800 1.219200
v -12.801600 1.219200 1.295400
v -9.753600 -3.352800 4.876800
v -9.753599 1.219200 4.953000
v -13.716001 -3.352800 4.876800
v -12.801600 1.219200 4.953000
v -9.289196 -3.090647 -6.400800
v -8.817496 -2.796509 -6.400800
v -8.340583 -2.370667 -6.400800
v -7.860542 -1.865803 -6.400800
v -7.379457 -1.334598 -6.400800
v -6.899416 -0.829733 -6.400800
v -6.422503 -0.403891 -6.400800
v -5.950802 -0.109753 -6.400800
v -5.954579 -0.109753 -2.469010
v -6.454915 -0.403891 -2.545535
v -6.974265 -0.829733 -2.645017
v -7.499484 -1.334597 -2.744499
v -8.017429 -1.865802 -2.821023
v -8.514957 -2.370667 -2.851633
v -8.978924 -2.796508 -2.813371
v -9.396186 -3.090647 -2.683279
v -5.954579 4.462247 -2.469010
v -6.454915 4.168108 -2.545535
v -6.974265 3.742266 -2.645017
v -7.499484 3.237402 -2.744499
v -8.017429 2.706197 -2.821023
v -8.514957 2.201333 -2.851633
v -8.978924 1.775491 -2.813371
v -9.396186 1.481353 -2.683279
v -5.950801 4.462247 -6.400800
v -6.422502 4.168108 -6.400800
v -6.899415 3.742266 -6.400800
v -7.379457 3.237402 -6.400800
v -7.860541 2.706197 -6.400800
v -8.340583 2.201333 -6.400800
v -8.817496 1.775491 -6.400800
v -9.289197 1.481353 -6.400800
v -13.716001 0.304800 -2.362200
v -13.716000 0.304800 -6.324600
v -13.716001 0.304800 1.295400
v -13.716001 0.304800 4.953000
v -13.716002 -0.304800 -2.362200
v -13.716001 -0.304800 -6.324600
v -13.716002 -0.304800 1.295400
v -13.716002 -0.304800 4.953000
v -13.411201 -0.304800 -2.362200
v -13.411200 -0.304800 -6.324600
v -13.411201 -0.304800 1.295400
v -13.411201 -0.304800 4.953000
v -13.411201 -2.438400 -2.362200
v -13.411200 -2.438400 -6.324600
v -13.411201 -2.438400 1.295400
v -13.411201 -2.438400 4.953000
v -13.716001 -2.743200 -2.362200
v -13.716000 -2.743200 -6.324600
v -13.716001 -2.743200 1.295400
v -13.716001 -2.743200 4.953000
v -13.716002 -3.352800 -2.362200
v -13.716001 -3.352800 -6.324600
v -13.716002 -3.352800 1.295400
v -13.716002 -3.352800 4.953000
v -13.656775 0.698628 4.953000
v -13.481869 0.985069 4.953000
v -13.195428 1.159976 4.953000
v -13.195428 1.159976 1.295400
v -13.481869 0.985069 1.295400
v -13.656775 0.698628 1.295400
v -13.195428 1.159976 -2.362200
v -13.481869 0.985069 -2.362200
v -13.656775 0.698628 -2.362200
v -13.195427 1.159976 -6.324600
v -13.481868 0.985069 -6.324600
v -13.656775 0.698628 -6.324600
v -13.716000 1.219200 -6.324600
v -13.716002 -3.352800 -6.400800
vn -0.0000 1.0000 -0.0000
vn -1.0000 -0.0000 -0.0000
vn -0.0000 -0.0000 -1.0000
vn 1.0000 -0.0000 -0.0000
vn -0.0000 -1.0000 -0.0000
vn -0.0000 -0.7071 -0.7071
vn -0.0000 -0.0000 1.0000
vn -0.1125 0.9937 -0.0000
vn 0.1157 -0.9933 0.0001
vn 0.0301 -0.0000 -0.9995
vn 0.0746 -0.9972 -0.0000
vn -0.4993 0.8663 -0.0131
vn -0.5829 0.8125 -0.0070
vn -0.5130 0.8582 -0.0187
vn -0.6638 0.0007 -0.7479
vn -0.4940 0.0090 -0.8694
vn -0.5720 0.0137 -0.8202
vn 0.5005 -0.8657 0.0132
vn 0.5832 -0.8123 0.0067
vn 0.5914 -0.8064 -0.0000
vn 0.0880 -0.0077 0.9961
vn 0.0117 -0.0106 0.9999
vn 0.0541 -0.0000 0.9985
vn -0.6219 0.7828 -0.0232
vn -0.6018 0.7981 -0.0283
vn -0.6931 0.7201 -0.0328
vn -0.6954 0.7179 -0.0324
vn -0.7150 0.6985 -0.0294
vn -0.7328 0.6797 -0.0321
vn -0.7309 0.6820 -0.0275
vn -0.7042 0.7097 -0.0189
vn -0.6935 0.7203 -0.0179
vn -0.6624 0.7491 -0.0096
vn -0.5975 0.8018 -0.0084
vn -0.5674 0.8234 -0.0029
vn -0.3834 0.9236 -0.0022
vn -0.3629 0.9318 -0.0002
vn -0.1157 0.9933 -0.0001
vn -0.4291 -0.0000 -0.9032
vn -0.2391 -0.0000 -0.9710
vn -0.1470 -0.0000 -0.9891
vn -0.0461 -0.0000 -0.9989
vn 0.0241 -0.0000 -0.9997
vn 0.0825 -0.0000 -0.9966
vn 0.1252 -0.0000 -0.9921
vn 0.1564 -0.0000 -0.9877
vn 0.1761 -0.0000 -0.9844
vn 0.1867 -0.0000 -0.9824
vn 0.1876 -0.0000 -0.9822
vn 0.1764 -0.0000 -0.9843
vn 0.1622 -0.0000 -0.9868
vn 0.1178 -0.0000 -0.9930
vn 0.0969 -0.0000 -0.9953
vn 0.0349 -0.0000 -0.9994
vn 0.5148 -0.8571 0.0190
vn 0.6219 -0.7828 0.0232
vn 0.6018 -0.7981 0.0283
vn 0.6931 -0.7201 0.0328
vn 0.6954 -0.7179 0.0324
vn 0.7150 -0.6985 0.0294
vn 0.7309 -0.6820 0.0275
vn 0.7042 -0.7097 0.0189
vn 0.6935 -0.7203 0.0179
vn 0.6624 -0.7491 0.0096
vn 0.5975 -0.8018 0.0084
vn 0.5674 -0.8234 0.0029
vn 0.3834 -0.9236 0.0022
vn 0.3629 -0.9318 0.0002
vn 0.1125 -0.9937 -0.0000
vn 0.9972 -0.0746 -0.0000
vn 0.7071 -0.7071 -0.0000
vn 0.9398 -0.3417 -0.0000
vn 0.3417 -0.9398 -0.0000
vn 0.0038 -0.0167 0.9999
vn -0.0000 -0.0167 0.9999
vn -0.5914 0.8064 -0.0000
vn 0.7328 -0.6797 0.0321
vt -7.606200 -13.611952
vt -1.729648 -8.600313
vt -7.606600 -8.600313
vt -1.729248 -13.611952
vt -0.610229 -8.600313
vt 3.029784 1.618112
vt 6.108188 7.495065
vt 3.029784 7.495065
vt 14.632154 6.650999
vt 11.553747 1.618112
vt 14.632151 1.618112
vt 1.528479 7.610786
vt -1.527418 1.733834
vt 1.528479 1.733834
vt -2.638650 8.733534
vt 2.205872 14.607147
vt -2.638650 14.610471
vt 1.528479 8.730206
vt -1.527418 7.610786
vt 3.029784 8.614486
vt 7.227606 12.252601
vt 3.029784 12.252601
vt 2.647901 6.766721
vt 1.528481 1.781150
vt 2.647901 1.733834
vt -13.632154 -12.524097
vt -8.272425 -8.746759
vt -12.326833 -7.658904
vt 6.670909 -8.767201
vt 3.029787 -13.611953
vt 6.667891 -13.611723
vt -0.609828 -13.611952
vt 3.027885 -8.600314
vt -11.674170 -5.226307
vt -0.610428 -6.094495
vt 3.034315 -6.345170
vt 3.032806 -8.767430
vt -2.638652 3.546327
vt -7.511545 4.003625
vt -6.425022 1.733834
vt 6.737547 -1.733311
vt 3.101120 0.957860
vt 3.099444 -1.733541
vt 3.029785 -1.885681
vt -0.608617 1.733836
vt -0.608328 -1.885681
vt -3.966586 -1.885681
vt -9.434330 9.585761
vt -13.632154 6.297466
vt -9.434330 6.227502
vt 10.097474 0.958305
vt 6.739223 0.958091
vt 10.095796 -1.733098
vt 13.455723 0.958516
vt -13.632154 2.939207
vt -9.434330 2.869244
vt -3.966876 1.733836
vt -7.324846 -1.885681
vt -0.383653 -2.236474
vt 3.029630 -2.334205
vt -6.423745 8.860906
vt -2.718297 10.284980
vt -2.638652 10.676067
vt 6.443111 -2.114892
vt -9.577474 -1.731916
vt -13.510170 -1.118705
vt -9.455761 -2.206560
vt -0.264389 -2.644902
vt 3.029453 -2.792360
vt -0.229530 -3.108202
vt 3.029182 -3.267488
vt -0.257962 -3.609488
vt 3.028854 -3.752799
vt 3.028507 -4.241508
vt -0.328568 -4.131867
vt 3.028180 -4.726821
vt -0.420233 -4.658449
vt 3.027907 -5.201949
vt -0.511842 -5.172340
vt 3.027730 -5.660104
vt -0.582279 -5.656653
vt 3.027684 -6.094495
vt -6.504667 8.472487
vt -2.798803 9.827675
vt -6.585173 8.015182
vt -2.968345 9.276297
vt -6.754714 7.463804
vt -3.188882 8.663414
vt -6.975252 6.850922
vt -3.422378 8.021588
vt -7.208748 6.209095
vt -3.630794 7.383381
vt -7.417163 5.570889
vt -3.776091 6.781358
vt -7.562461 4.968865
vt -3.820230 6.248083
vt -7.606600 4.435590
vt -3.725175 5.816118
vt 3.029785 -2.209580
vt 6.324067 -2.557359
vt 3.030156 -2.700108
vt 6.289593 -3.074201
vt 3.030806 -3.228380
vt 6.318506 -3.640558
vt 3.032498 -4.337766
vt 6.389621 -4.231569
vt 3.033315 -4.888683
vt 6.481753 -4.822374
vt 3.033965 -5.416955
vt 6.573720 -5.388112
vt 3.034336 -5.907484
vt 6.644337 -5.903920
vt 6.672419 -6.344940
vt -13.361557 -1.606982
vt -9.307149 -2.694838
vt -13.097391 -2.131221
vt -9.042983 -3.219076
vt -12.763893 -2.677034
vt -8.709486 -3.764890
vt -12.407285 -3.230042
vt -8.352878 -4.317898
vt -12.073787 -3.775857
vt -8.019380 -4.863712
vt -11.809621 -4.300096
vt -7.755214 -5.387951
vt -11.661009 -4.788374
vt -7.606601 -5.876229
vt -7.619763 -6.314163
vt 9.727888 11.972743
vt 9.172271 8.614482
vt 9.727888 8.614482
vt 9.172271 5.256223
vt 9.727890 5.256223
vt 9.172271 1.618110
vt 9.727890 1.618110
vt 11.275322 1.618112
vt 11.553746 4.976392
vt 11.275321 4.976370
vt 11.553746 8.334651
vt 11.275321 8.334630
vt 11.553746 11.972765
vt 11.275322 11.972743
vt 7.227610 1.618110
vt 9.172271 4.976369
vt 7.227610 4.976370
vt 9.172271 8.334630
vt 7.227610 8.334630
vt 9.172271 11.972743
vt 7.227610 11.972743
vt 10.929485 1.618113
vt 11.275322 4.976825
vt 10.929485 4.976362
vt 11.275322 8.335076
vt 10.929487 8.334613
vt 11.275322 11.973179
vt 10.929485 11.972716
vt 10.929483 11.972743
vt 10.373866 8.614482
vt 10.929483 8.614482
vt 10.373866 5.256223
vt 10.929485 5.256223
vt 10.373868 1.618110
vt 10.929485 1.618110
vt 10.093406 11.972743
vt 10.093406 5.256223
vt 10.093406 8.614482
vt 10.373865 11.972743
vt 10.097345 1.617899
vt 13.455813 1.321171
vt 13.455596 1.618112
vt 10.097563 1.320959
vt 10.373865 8.614482
vt 6.739097 1.617687
vt 6.739314 1.320746
vt 10.093406 1.618110
vt 3.100994 1.617456
vt 3.101211 1.320516
vt -13.632154 -0.644508
vt -8.634742 1.781838
vt -12.689421 2.869244
vt 6.108188 1.618113
vt 11.553747 6.650999
vt 2.205872 8.730210
vt -2.638653 8.730206
vt 7.227606 8.614486
vt 1.528481 6.814037
vt -9.577747 -13.611953
vt 3.028286 -13.611952
vt 3.029497 1.733836
vt -13.632154 9.655726
vt 13.454046 -1.732885
vt -7.325134 1.733836
vt 3.031623 -3.779299
vt 11.553746 1.618134
vt 11.275322 1.618577
vt 10.373866 11.972743
vt 10.373866 1.618110
s 1
f 2/1/1 3/2/1 1/3/1
f 4/4/1 5/5/1 3/2/1
f 2/6/2 11/7/2 4/8/2
f 1/9/3 8/10/3 2/11/3
f 3/12/4 7/13/4 1/14/4
f 8/15/5 12/16/5 11/17/5
f 5/18/4 12/19/4 3/12/4
f 6/20/2 13/21/2 16/22/2
f 12/23/6 9/24/6 11/25/6
f 16/26/7 14/27/7 15/28/7
f 10/29/5 13/30/5 9/31/5
f 6/32/1 15/33/1 5/5/1
f 11/7/2 6/20/2 4/8/2
f 14/27/7 20/34/7 15/28/7
f 15/33/1 17/35/8 5/5/1
f 10/29/5 19/36/9 14/37/5
f 5/38/3 18/39/10 10/40/3
f 22/41/5 27/42/11 23/43/5
f 24/44/1 25/45/1 21/46/1
f 25/45/1 29/47/1 21/46/1
f 22/48/2 29/49/2 30/50/2
f 22/41/5 32/51/11 26/52/11
f 30/53/5 36/54/11 32/51/11
f 30/50/2 33/55/2 34/56/2
f 31/57/1 33/58/1 29/47/1
f 24/44/12 52/59/13 37/60/14
f 22/61/15 52/62/16 21/63/17
f 23/43/18 60/64/19 22/41/20
f 23/65/21 37/66/22 68/67/23
f 37/60/14 51/68/24 38/69/25
f 38/69/25 50/70/26 39/71/27
f 39/71/27 49/72/28 40/73/29
f 49/72/28 41/74/30 40/73/29
f 48/75/31 42/76/32 41/74/30
f 47/77/33 43/78/34 42/76/32
f 46/79/35 44/80/36 43/78/34
f 45/81/37 20/82/38 44/80/36
f 60/83/39 51/84/40 52/62/16
f 59/85/41 50/86/42 51/84/40
f 58/87/43 49/88/44 50/86/42
f 57/89/45 48/90/46 49/88/44
f 56/91/47 47/92/48 48/90/46
f 55/93/49 46/94/50 47/92/48
f 54/95/51 45/96/52 46/94/50
f 53/97/53 17/98/54 45/96/52
f 68/99/55 59/100/56 60/64/19
f 67/101/57 58/102/58 59/100/56
f 66/103/59 57/104/60 58/102/58
f 57/104/60 64/105/61 56/106/62
f 56/106/62 63/107/63 55/108/64
f 55/108/64 62/109/65 54/110/66
f 54/110/66 61/111/67 53/112/68
f 53/112/68 19/36/9 18/113/69
f 68/67/23 38/114/7 67/115/7
f 67/115/7 39/116/7 66/117/7
f 66/117/7 40/118/7 65/119/7
f 65/119/7 41/120/7 64/121/7
f 64/121/7 42/122/7 63/123/7
f 63/123/7 43/124/7 62/125/7
f 62/125/7 44/126/7 61/127/7
f 61/127/7 20/34/7 19/128/7
f 72/129/70 75/130/4 71/131/70
f 71/131/70 73/132/4 69/133/70
f 69/133/70 74/134/4 70/135/70
f 76/136/1 79/137/1 75/138/1
f 75/138/1 77/139/1 73/140/1
f 73/140/1 78/141/1 74/142/1
f 80/143/4 83/144/4 79/145/4
f 79/145/4 81/146/4 77/147/4
f 77/147/4 82/148/4 78/149/4
f 84/150/71 87/151/71 83/152/71
f 83/152/71 85/153/71 81/154/71
f 81/154/71 86/155/71 82/156/71
f 88/157/4 91/158/4 87/159/4
f 87/159/4 89/160/4 85/161/4
f 85/161/4 90/162/4 86/163/4
f 71/131/70 93/164/72 72/129/70
f 71/131/70 101/165/72 98/166/72
f 70/135/70 101/165/72 69/133/70
f 98/166/72 94/167/71 93/164/72
f 97/168/71 95/169/73 94/170/71
f 96/171/73 36/54/11 95/169/73
f 101/165/72 97/172/71 98/166/72
f 100/173/71 96/171/73 97/168/71
f 99/174/73 32/51/11 96/171/73
f 104/175/72 100/160/71 101/165/72
f 103/176/71 99/174/73 100/173/71
f 102/177/73 26/52/11 99/174/73
f 24/178/74 105/179/75 106/180/75
f 2/1/1 4/4/1 3/2/1
f 4/4/1 6/32/1 5/5/1
f 2/6/2 8/181/2 11/7/2
f 1/9/3 7/182/3 8/10/3
f 3/12/4 12/19/4 7/13/4
f 8/15/5 7/183/5 12/16/5
f 5/18/4 10/184/4 12/19/4
f 6/20/2 9/185/2 13/21/2
f 12/23/6 10/186/6 9/24/6
f 16/26/7 13/187/7 14/27/7
f 10/29/5 14/37/5 13/30/5
f 6/32/1 16/188/1 15/33/1
f 11/7/2 9/185/2 6/20/2
f 14/27/7 19/128/7 20/34/7
f 15/33/1 20/82/38 17/35/8
f 10/29/5 18/113/69 19/36/9
f 5/38/3 17/98/54 18/39/10
f 22/41/5 26/52/11 27/42/11
f 24/44/1 28/189/1 25/45/1
f 25/45/1 31/57/1 29/47/1
f 22/48/2 21/190/2 29/49/2
f 22/41/5 30/53/5 32/51/11
f 30/53/5 34/191/5 36/54/11
f 30/50/2 29/49/2 33/55/2
f 31/57/1 35/192/1 33/58/1
f 24/44/12 21/46/76 52/59/13
f 22/61/15 60/83/39 52/62/16
f 23/43/18 68/99/55 60/64/19
f 23/65/21 24/178/74 37/66/22
f 37/60/14 52/59/13 51/68/24
f 38/69/25 51/68/24 50/70/26
f 39/71/27 50/70/26 49/72/28
f 49/72/28 48/75/31 41/74/30
f 48/75/31 47/77/33 42/76/32
f 47/77/33 46/79/35 43/78/34
f 46/79/35 45/81/37 44/80/36
f 45/81/37 17/35/8 20/82/38
f 60/83/39 59/85/41 51/84/40
f 59/85/41 58/87/43 50/86/42
f 58/87/43 57/89/45 49/88/44
f 57/89/45 56/91/47 48/90/46
f 56/91/47 55/93/49 47/92/48
f 55/93/49 54/95/51 46/94/50
f 54/95/51 53/97/53 45/96/52
f 53/97/53 18/39/10 17/98/54
f 68/99/55 67/101/57 59/100/56
f 67/101/57 66/103/59 58/102/58
f 66/103/59 65/193/77 57/104/60
f 57/104/60 65/193/77 64/105/61
f 56/106/62 64/105/61 63/107/63
f 55/108/64 63/107/63 62/109/65
f 54/110/66 62/109/65 61/111/67
f 53/112/68 61/111/67 19/36/9
f 68/67/23 37/66/22 38/114/7
f 67/115/7 38/114/7 39/116/7
f 66/117/7 39/116/7 40/118/7
f 65/119/7 40/118/7 41/120/7
f 64/121/7 41/120/7 42/122/7
f 63/123/7 42/122/7 43/124/7
f 62/125/7 43/124/7 44/126/7
f 61/127/7 44/126/7 20/34/7
f 72/129/70 76/148/4 75/130/4
f 71/131/70 75/130/4 73/132/4
f 69/133/70 73/132/4 74/134/4
f 76/136/1 80/194/1 79/137/1
f 75/138/1 79/137/1 77/139/1
f 73/140/1 77/139/1 78/141/1
f 80/143/4 84/134/4 83/144/4
f 79/145/4 83/144/4 81/146/4
f 77/147/4 81/146/4 82/148/4
f 84/150/71 88/195/71 87/151/71
f 83/152/71 87/151/71 85/153/71
f 81/154/71 85/153/71 86/155/71
f 88/157/4 92/196/4 91/158/4
f 87/159/4 91/158/4 89/160/4
f 85/161/4 89/160/4 90/162/4
f 71/131/70 98/166/72 93/164/72
f 71/131/70 69/133/70 101/165/72
f 70/135/70 104/175/72 101/165/72
f 98/166/72 97/172/71 94/167/71
f 97/168/71 96/171/73 95/169/73
f 96/171/73 32/51/11 36/54/11
f 101/165/72 100/160/71 97/172/71
f 100/173/71 99/174/73 96/171/73
f 99/174/73 26/52/11 32/51/11
f 104/175/72 103/197/71 100/160/71
f 103/176/71 102/177/73 99/174/73
f 102/177/73 27/42/11 26/52/11
f 24/178/74 23/65/21 105/179/75
